<svg xmlns="http://www.w3.org/2000/svg" version="1.1" xmlns:xlink="http://www.w3.org/1999/xlink" xmlns:svgjs="http://svgjs.dev/svgjs" viewBox="0 0 800 800"><defs><linearGradient x1="50%" y1="0%" x2="50%" y2="100%" id="ffflurry-grad" gradientTransform="rotate(270)"><stop stop-color="hsl(238, 82%, 13%)" stop-opacity="1" offset="0%"></stop><stop stop-color="hsl(1.4, 100%, 67%)" stop-opacity="1" offset="45%"></stop><stop stop-color="hsl(272, 99%, 54%)" stop-opacity="1" offset="100%"></stop></linearGradient></defs><rect width="100%" height="100%" fill="hsl(238, 82%, 13%)"></rect><g fill="url(#ffflurry-grad)"><rect width="314" height="3" x="462" y="143.5" rx="1.5" transform="rotate(45, 619, 145)" opacity="0.16"></rect><rect width="257" height="3" x="434.5" y="61.5" rx="1.5" transform="rotate(45, 563, 63)" opacity="0.16"></rect><rect width="193" height="3" x="31.5" y="133.5" rx="1.5" transform="rotate(45, 128, 135)" opacity="0.58"></rect><rect width="103" height="3" x="590.5" y="536.5" rx="1.5" transform="rotate(45, 642, 538)" opacity="0.30"></rect><rect width="65" height="3" x="436.5" y="394.5" rx="1.5" transform="rotate(45, 469, 396)" opacity="0.31"></rect><rect width="366" height="3" x="25" y="182.5" rx="1.5" transform="rotate(45, 208, 184)" opacity="0.86"></rect><rect width="511" height="3" x="484.5" y="442.5" rx="1.5" transform="rotate(45, 740, 444)" opacity="0.85"></rect><rect width="561" height="3" x="89.5" y="641.5" rx="1.5" transform="rotate(45, 370, 643)" opacity="0.30"></rect><rect width="263" height="3" x="382.5" y="174.5" rx="1.5" transform="rotate(45, 514, 176)" opacity="0.99"></rect><rect width="322" height="3" x="209" y="35.5" rx="1.5" transform="rotate(45, 370, 37)" opacity="0.78"></rect><rect width="414" height="3" x="354" y="267.5" rx="1.5" transform="rotate(45, 561, 269)" opacity="0.76"></rect><rect width="250" height="3" x="655" y="722.5" rx="1.5" transform="rotate(45, 780, 724)" opacity="0.93"></rect><rect width="165" height="3" x="412.5" y="449.5" rx="1.5" transform="rotate(45, 495, 451)" opacity="0.17"></rect><rect width="62" height="3" x="226" y="753.5" rx="1.5" transform="rotate(45, 257, 755)" opacity="0.64"></rect><rect width="175" height="3" x="270.5" y="291.5" rx="1.5" transform="rotate(45, 358, 293)" opacity="0.12"></rect><rect width="363" height="3" x="274.5" y="716.5" rx="1.5" transform="rotate(45, 456, 718)" opacity="0.71"></rect><rect width="113" height="3" x="688.5" y="313.5" rx="1.5" transform="rotate(45, 745, 315)" opacity="0.97"></rect><rect width="159" height="3" x="655.5" y="717.5" rx="1.5" transform="rotate(45, 735, 719)" opacity="0.63"></rect><rect width="496" height="3" x="2" y="482.5" rx="1.5" transform="rotate(45, 250, 484)" opacity="0.74"></rect><rect width="120" height="3" x="490" y="556.5" rx="1.5" transform="rotate(45, 550, 558)" opacity="0.35"></rect><rect width="217" height="3" x="-50.5" y="338.5" rx="1.5" transform="rotate(45, 58, 340)" opacity="0.43"></rect><rect width="353" height="3" x="9.5" y="364.5" rx="1.5" transform="rotate(45, 186, 366)" opacity="0.61"></rect><rect width="307" height="3" x="-97.5" y="753.5" rx="1.5" transform="rotate(45, 56, 755)" opacity="0.47"></rect><rect width="518" height="3" x="303" y="752.5" rx="1.5" transform="rotate(45, 562, 754)" opacity="0.68"></rect><rect width="448" height="3" x="187" y="343.5" rx="1.5" transform="rotate(45, 411, 345)" opacity="0.50"></rect><rect width="140" height="3" x="-40" y="566.5" rx="1.5" transform="rotate(45, 30, 568)" opacity="0.44"></rect><rect width="389" height="3" x="-138.5" y="28.5" rx="1.5" transform="rotate(45, 56, 30)" opacity="0.14"></rect><rect width="55" height="3" x="121.5" y="55.5" rx="1.5" transform="rotate(45, 149, 57)" opacity="0.68"></rect><rect width="453" height="3" x="404.5" y="474.5" rx="1.5" transform="rotate(45, 631, 476)" opacity="0.63"></rect><rect width="558" height="3" x="480" y="561.5" rx="1.5" transform="rotate(45, 759, 563)" opacity="0.77"></rect><rect width="262" height="3" x="546" y="92.5" rx="1.5" transform="rotate(45, 677, 94)" opacity="0.78"></rect><rect width="479" height="3" x="-19.5" y="105.5" rx="1.5" transform="rotate(45, 220, 107)" opacity="0.09"></rect><rect width="411" height="3" x="66.5" y="637.5" rx="1.5" transform="rotate(45, 272, 639)" opacity="0.17"></rect><rect width="316" height="3" x="85" y="29.5" rx="1.5" transform="rotate(45, 243, 31)" opacity="0.61"></rect><rect width="206" height="3" x="395" y="586.5" rx="1.5" transform="rotate(45, 498, 588)" opacity="0.95"></rect><rect width="122" height="3" x="362" y="557.5" rx="1.5" transform="rotate(45, 423, 559)" opacity="0.79"></rect><rect width="518" height="3" x="-90" y="725.5" rx="1.5" transform="rotate(45, 169, 727)" opacity="0.21"></rect><rect width="99" height="3" x="34.5" y="180.5" rx="1.5" transform="rotate(45, 84, 182)" opacity="0.50"></rect><rect width="379" height="3" x="312.5" y="314.5" rx="1.5" transform="rotate(45, 502, 316)" opacity="0.08"></rect><rect width="383" height="3" x="157.5" y="506.5" rx="1.5" transform="rotate(45, 349, 508)" opacity="0.78"></rect><rect width="219" height="3" x="468.5" y="665.5" rx="1.5" transform="rotate(45, 578, 667)" opacity="0.72"></rect><rect width="451" height="3" x="253.5" y="48.5" rx="1.5" transform="rotate(45, 479, 50)" opacity="0.38"></rect><rect width="112" height="3" x="601" y="704.5" rx="1.5" transform="rotate(45, 657, 706)" opacity="0.95"></rect><rect width="344" height="3" x="182" y="773.5" rx="1.5" transform="rotate(45, 354, 775)" opacity="0.97"></rect><rect width="177" height="3" x="-33.5" y="443.5" rx="1.5" transform="rotate(45, 55, 445)" opacity="0.49"></rect><rect width="605" height="3" x="-150.5" y="467.5" rx="1.5" transform="rotate(45, 152, 469)" opacity="0.10"></rect><rect width="441" height="3" x="363.5" y="594.5" rx="1.5" transform="rotate(45, 584, 596)" opacity="0.59"></rect><rect width="228" height="3" x="-41" y="666.5" rx="1.5" transform="rotate(45, 73, 668)" opacity="0.47"></rect><rect width="391" height="3" x="110.5" y="109.5" rx="1.5" transform="rotate(45, 306, 111)" opacity="0.97"></rect><rect width="192" height="3" x="549" y="616.5" rx="1.5" transform="rotate(45, 645, 618)" opacity="0.95"></rect><rect width="510" height="3" x="95" y="211.5" rx="1.5" transform="rotate(45, 350, 213)" opacity="0.99"></rect><rect width="350" height="3" x="457" y="341.5" rx="1.5" transform="rotate(45, 632, 343)" opacity="0.37"></rect><rect width="111" height="3" x="4.5" y="90.5" rx="1.5" transform="rotate(45, 60, 92)" opacity="0.44"></rect><rect width="349" height="3" x="-148.5" y="144.5" rx="1.5" transform="rotate(45, 26, 146)" opacity="0.74"></rect><rect width="288" height="3" x="4" y="191.5" rx="1.5" transform="rotate(45, 148, 193)" opacity="0.41"></rect><rect width="492" height="3" x="398" y="239.5" rx="1.5" transform="rotate(45, 644, 241)" opacity="0.34"></rect><rect width="199" height="3" x="178.5" y="197.5" rx="1.5" transform="rotate(45, 278, 199)" opacity="0.55"></rect><rect width="342" height="3" x="443" y="407.5" rx="1.5" transform="rotate(45, 614, 409)" opacity="0.83"></rect><rect width="425" height="3" x="224.5" y="235.5" rx="1.5" transform="rotate(45, 437, 237)" opacity="0.57"></rect><rect width="374" height="3" x="152" y="404.5" rx="1.5" transform="rotate(45, 339, 406)" opacity="0.34"></rect><rect width="372" height="3" x="301" y="660.5" rx="1.5" transform="rotate(45, 487, 662)" opacity="0.44"></rect><rect width="720" height="3" x="381" y="193.5" rx="1.5" transform="rotate(45, 741, 195)" opacity="0.61"></rect><rect width="293" height="3" x="137.5" y="333.5" rx="1.5" transform="rotate(45, 284, 335)" opacity="0.47"></rect><rect width="137" height="3" x="606.5" y="24.5" rx="1.5" transform="rotate(45, 675, 26)" opacity="0.95"></rect><rect width="447" height="3" x="487.5" y="618.5" rx="1.5" transform="rotate(45, 711, 620)" opacity="0.69"></rect><rect width="129" height="3" x="92.5" y="268.5" rx="1.5" transform="rotate(45, 157, 270)" opacity="0.36"></rect><rect width="471" height="3" x="-132.5" y="569.5" rx="1.5" transform="rotate(45, 103, 571)" opacity="0.08"></rect><rect width="135" height="3" x="-37.5" y="230.5" rx="1.5" transform="rotate(45, 30, 232)" opacity="0.91"></rect><rect width="52" height="3" x="213" y="269.5" rx="1.5" transform="rotate(45, 239, 271)" opacity="0.56"></rect><rect width="530" height="3" x="144" y="126.5" rx="1.5" transform="rotate(45, 409, 128)" opacity="0.91"></rect><rect width="211" height="3" x="568.5" y="772.5" rx="1.5" transform="rotate(45, 674, 774)" opacity="0.95"></rect><rect width="328" height="3" x="-78" y="261.5" rx="1.5" transform="rotate(45, 86, 263)" opacity="0.50"></rect><rect width="86" height="3" x="720" y="74.5" rx="1.5" transform="rotate(45, 763, 76)" opacity="0.73"></rect><rect width="185" height="3" x="264.5" y="718.5" rx="1.5" transform="rotate(45, 357, 720)" opacity="0.46"></rect><rect width="441" height="3" x="312.5" y="500.5" rx="1.5" transform="rotate(45, 533, 502)" opacity="0.22"></rect><rect width="377" height="3" x="1.5" y="587.5" rx="1.5" transform="rotate(45, 190, 589)" opacity="0.78"></rect><rect width="301" height="3" x="306.5" y="773.5" rx="1.5" transform="rotate(45, 457, 775)" opacity="0.58"></rect></g></svg>