<svg xmlns="http://www.w3.org/2000/svg" version="1.1" xmlns:xlink="http://www.w3.org/1999/xlink" xmlns:svgjs="http://svgjs.dev/svgjs" viewBox="0 0 800 800"><circle r="10" cx="633" cy="577" stroke-width="2" stroke="hsl(181, 50%, 50%)" fill="none" opacity="0.59"></circle><circle r="11.5" cx="390" cy="95" stroke-width="2" stroke="hsl(285, 50%, 50%)" fill="none" opacity="0.66"></circle><circle r="12" cx="566" cy="77" fill="hsl(183, 50%, 50%)" opacity="0.88"></circle><circle r="9.5" cx="739" cy="442" stroke-width="2" stroke="hsl(176, 50%, 50%)" fill="none" opacity="0.17"></circle><circle r="13.5" cx="771" cy="320" fill="hsl(176, 50%, 50%)" opacity="0.68"></circle><circle r="7" cx="170" cy="626" fill="hsl(228, 50%, 50%)" opacity="0.58"></circle><circle r="16" cx="231" cy="371" fill="hsl(286, 50%, 50%)" opacity="0.42"></circle><circle r="14.5" cx="449" cy="178" stroke-width="2" stroke="hsl(215, 50%, 50%)" fill="none" opacity="0.64"></circle><circle r="8" cx="665" cy="713" fill="hsl(180, 50%, 50%)" opacity="0.51"></circle><circle r="13" cx="338" cy="780" fill="hsl(271, 50%, 50%)" opacity="0.36"></circle><circle r="10.5" cx="503" cy="277" fill="hsl(186, 50%, 50%)" opacity="0.60"></circle><circle r="12.5" cx="558" cy="725" fill="hsl(181, 50%, 50%)" opacity="0.92"></circle><circle r="9.5" cx="530" cy="240" stroke-width="2" stroke="hsl(183, 50%, 50%)" fill="none" opacity="0.58"></circle><circle r="11" cx="622" cy="148" fill="hsl(161, 50%, 50%)" opacity="0.16"></circle><circle r="16.5" cx="183" cy="223" fill="hsl(242, 50%, 50%)" opacity="0.84"></circle><circle r="15" cx="371" cy="592" stroke-width="2" stroke="hsl(254, 50%, 50%)" fill="none" opacity="0.96"></circle><circle r="14" cx="358" cy="660" stroke-width="2" stroke="hsl(263, 50%, 50%)" fill="none" opacity="0.71"></circle><circle r="16" cx="250" cy="776" stroke-width="2" stroke="hsl(292, 50%, 50%)" fill="none" opacity="0.16"></circle><circle r="9" cx="91" cy="133" fill="hsl(89, 50%, 50%)" opacity="0.30"></circle><circle r="10" cx="394" cy="244" fill="hsl(237, 50%, 50%)" opacity="0.89"></circle><circle r="12" cx="451" cy="56" stroke-width="2" stroke="hsl(268, 50%, 50%)" fill="none" opacity="0.82"></circle><circle r="13" cx="544" cy="480" fill="hsl(182, 50%, 50%)" opacity="0.34"></circle><circle r="16.5" cx="335" cy="161" fill="hsl(283, 50%, 50%)" opacity="0.14"></circle><circle r="6.5" cx="694" cy="711" fill="hsl(178, 50%, 50%)" opacity="0.79"></circle><circle r="13.5" cx="265" cy="279" stroke-width="2" stroke="hsl(298, 50%, 50%)" fill="none" opacity="0.97"></circle><circle r="14" cx="401" cy="635" fill="hsl(229, 50%, 50%)" opacity="0.46"></circle><circle r="6.5" cx="25" cy="152" stroke-width="2" stroke="hsl(106, 50%, 50%)" fill="none" opacity="0.27"></circle><circle r="8.5" cx="502" cy="577" fill="hsl(186, 50%, 50%)" opacity="0.40"></circle><circle r="6.5" cx="741" cy="504" stroke-width="2" stroke="hsl(176, 50%, 50%)" fill="none" opacity="0.31"></circle><circle r="9" cx="616" cy="525" stroke-width="2" stroke="hsl(182, 50%, 50%)" fill="none" opacity="0.18"></circle><circle r="18.5" cx="275" cy="543" fill="hsl(298, 50%, 50%)" opacity="0.93"></circle><circle r="10" cx="20" cy="580" stroke-width="2" stroke="hsl(129, 50%, 50%)" fill="none" opacity="0.36"></circle><circle r="17" cx="354" cy="23" stroke-width="2" stroke="hsl(310, 50%, 50%)" fill="none" opacity="0.54"></circle><circle r="15" cx="285" cy="368" stroke-width="2" stroke="hsl(298, 50%, 50%)" fill="none" opacity="0.10"></circle><circle r="7" cx="783" cy="162" stroke-width="2" stroke="hsl(142, 50%, 50%)" fill="none" opacity="0.87"></circle><circle r="7" cx="519" cy="13" fill="hsl(220, 50%, 50%)" opacity="0.77"></circle><circle r="12" cx="526" cy="53" stroke-width="2" stroke="hsl(213, 50%, 50%)" fill="none" opacity="0.69"></circle><circle r="18.5" cx="223" cy="531" stroke-width="2" stroke="hsl(278, 50%, 50%)" fill="none" opacity="0.29"></circle><circle r="9" cx="615" cy="625" stroke-width="2" stroke="hsl(182, 50%, 50%)" fill="none" opacity="0.47"></circle><circle r="9" cx="652" cy="100" stroke-width="2" stroke="hsl(136, 50%, 50%)" fill="none" opacity="0.41"></circle><circle r="14.5" cx="256" cy="456" fill="hsl(296, 50%, 50%)" opacity="0.98"></circle><circle r="8" cx="178" cy="62" stroke-width="2" stroke="hsl(122, 50%, 50%)" fill="none" opacity="0.77"></circle><circle r="6" cx="782" cy="88" fill="hsl(108, 50%, 50%)" opacity="0.77"></circle><circle r="16" cx="249" cy="654" fill="hsl(292, 50%, 50%)" opacity="0.89"></circle><circle r="10" cx="572" cy="627" stroke-width="2" stroke="hsl(181, 50%, 50%)" fill="none" opacity="0.38"></circle><circle r="11" cx="753" cy="540" fill="hsl(176, 50%, 50%)" opacity="0.57"></circle><circle r="12.5" cx="131" cy="343" stroke-width="2" stroke="hsl(183, 50%, 50%)" fill="none" opacity="0.45"></circle><circle r="9" cx="106" cy="183" stroke-width="2" stroke="hsl(143, 50%, 50%)" fill="none" opacity="0.69"></circle><circle r="5" cx="736" cy="481" fill="hsl(177, 50%, 50%)" opacity="0.27"></circle><circle r="12.5" cx="355" cy="510" fill="hsl(263, 50%, 50%)" opacity="0.81"></circle><circle r="8.5" cx="31" cy="330" stroke-width="2" stroke="hsl(127, 50%, 50%)" fill="none" opacity="0.82"></circle><circle r="7" cx="632" cy="456" fill="hsl(181, 50%, 50%)" opacity="0.80"></circle><circle r="9.5" cx="107" cy="431" fill="hsl(158, 50%, 50%)" opacity="0.13"></circle><circle r="11.5" cx="596" cy="436" stroke-width="2" stroke="hsl(182, 50%, 50%)" fill="none" opacity="0.87"></circle><circle r="14.5" cx="168" cy="503" stroke-width="2" stroke="hsl(228, 50%, 50%)" fill="none" opacity="0.83"></circle><circle r="10.5" cx="420" cy="484" fill="hsl(221, 50%, 50%)" opacity="0.66"></circle><circle r="13" cx="427" cy="19" fill="hsl(287, 50%, 50%)" opacity="0.64"></circle><circle r="9" cx="680" cy="493" stroke-width="2" stroke="hsl(179, 50%, 50%)" fill="none" opacity="0.32"></circle><circle r="8" cx="654" cy="746" stroke-width="2" stroke="hsl(180, 50%, 50%)" fill="none" opacity="0.96"></circle><circle r="16" cx="276" cy="204" fill="hsl(298, 50%, 50%)" opacity="0.46"></circle><circle r="10.5" cx="197" cy="681" fill="hsl(255, 50%, 50%)" opacity="0.33"></circle><circle r="8.5" cx="139" cy="457" stroke-width="2" stroke="hsl(198, 50%, 50%)" fill="none" opacity="0.57"></circle><circle r="5.5" cx="765" cy="788" stroke-width="2" stroke="hsl(176, 50%, 50%)" fill="none" opacity="0.30"></circle><circle r="7" cx="632" cy="485" fill="hsl(181, 50%, 50%)" opacity="0.61"></circle><circle r="18.5" cx="374" cy="328" stroke-width="2" stroke="hsl(254, 50%, 50%)" fill="none" opacity="0.77"></circle><circle r="9" cx="388" cy="493" fill="hsl(237, 50%, 50%)" opacity="0.95"></circle><circle r="6.5" cx="717" cy="730" stroke-width="2" stroke="hsl(177, 50%, 50%)" fill="none" opacity="0.52"></circle><circle r="12" cx="471" cy="404" stroke-width="2" stroke="hsl(196, 50%, 50%)" fill="none" opacity="0.25"></circle><circle r="7" cx="18" cy="373" fill="hsl(129, 50%, 50%)" opacity="0.99"></circle><circle r="13.5" cx="181" cy="354" fill="hsl(242, 50%, 50%)" opacity="0.73"></circle><circle r="8" cx="733" cy="80" stroke-width="2" stroke="hsl(110, 50%, 50%)" fill="none" opacity="0.87"></circle><circle r="17.5" cx="291" cy="72" stroke-width="2" stroke="hsl(267, 50%, 50%)" fill="none" opacity="0.98"></circle><circle r="8.5" cx="643" cy="187" fill="hsl(173, 50%, 50%)" opacity="0.30"></circle><circle r="13" cx="567" cy="129" fill="hsl(180, 50%, 50%)" opacity="0.82"></circle><circle r="8" cx="534" cy="622" stroke-width="2" stroke="hsl(183, 50%, 50%)" fill="none" opacity="0.72"></circle><circle r="6.5" cx="695" cy="85" fill="hsl(119, 50%, 50%)" opacity="0.91"></circle><circle r="9.5" cx="717" cy="320" fill="hsl(177, 50%, 50%)" opacity="0.94"></circle><circle r="9.5" cx="75" cy="37" stroke-width="2" stroke="hsl(112, 50%, 50%)" fill="none" opacity="0.79"></circle><circle r="12.5" cx="175" cy="148" stroke-width="2" stroke="hsl(167, 50%, 50%)" fill="none" opacity="0.22"></circle><circle r="7" cx="662" cy="784" fill="hsl(180, 50%, 50%)" opacity="0.74"></circle><circle r="13.5" cx="333" cy="616" fill="hsl(279, 50%, 50%)" opacity="0.19"></circle><circle r="8.5" cx="394" cy="212" fill="hsl(237, 50%, 50%)" opacity="0.34"></circle><circle r="8.5" cx="782" cy="503" stroke-width="2" stroke="hsl(176, 50%, 50%)" fill="none" opacity="0.94"></circle><circle r="13.5" cx="442" cy="359" fill="hsl(207, 50%, 50%)" opacity="0.24"></circle><circle r="22.5" cx="278" cy="139" stroke-width="2" stroke="hsl(278, 50%, 50%)" fill="none" opacity="0.71"></circle><circle r="13" cx="690" cy="615" fill="hsl(178, 50%, 50%)" opacity="0.23"></circle><circle r="10" cx="483" cy="660" fill="hsl(192, 50%, 50%)" opacity="0.54"></circle><circle r="13" cx="178" cy="778" stroke-width="2" stroke="hsl(242, 50%, 50%)" fill="none" opacity="0.68"></circle><circle r="8" cx="654" cy="521" fill="hsl(180, 50%, 50%)" opacity="0.18"></circle><circle r="9.5" cx="780" cy="435" fill="hsl(176, 50%, 50%)" opacity="0.89"></circle><circle r="7.5" cx="16" cy="439" stroke-width="2" stroke="hsl(129, 50%, 50%)" fill="none" opacity="0.49"></circle><circle r="12.5" cx="575" cy="774" fill="hsl(181, 50%, 50%)" opacity="0.50"></circle><circle r="9.5" cx="735" cy="272" fill="hsl(177, 50%, 50%)" opacity="0.86"></circle><circle r="13.5" cx="455" cy="750" stroke-width="2" stroke="hsl(201, 50%, 50%)" fill="none" opacity="0.62"></circle><circle r="18" cx="291" cy="486" stroke-width="2" stroke="hsl(295, 50%, 50%)" fill="none" opacity="0.94"></circle><circle r="12" cx="752" cy="228" stroke-width="2" stroke="hsl(176, 50%, 50%)" fill="none" opacity="0.96"></circle><circle r="10" cx="744" cy="606" fill="hsl(176, 50%, 50%)" opacity="0.66"></circle><circle r="13" cx="391" cy="749" fill="hsl(237, 50%, 50%)" opacity="0.10"></circle><circle r="6.5" cx="554" cy="22" fill="hsl(190, 50%, 50%)" opacity="0.48"></circle><circle r="12" cx="536" cy="669" stroke-width="2" stroke="hsl(183, 50%, 50%)" fill="none" opacity="0.97"></circle><circle r="9" cx="715" cy="386" stroke-width="2" stroke="hsl(177, 50%, 50%)" fill="none" opacity="0.84"></circle><circle r="7" cx="58" cy="440" stroke-width="2" stroke="hsl(129, 50%, 50%)" fill="none" opacity="0.21"></circle><circle r="9" cx="760" cy="654" fill="hsl(176, 50%, 50%)" opacity="1.00"></circle><circle r="12.5" cx="199" cy="632" stroke-width="2" stroke="hsl(255, 50%, 50%)" fill="none" opacity="0.86"></circle><circle r="14.5" cx="317" cy="293" fill="hsl(285, 50%, 50%)" opacity="0.60"></circle><circle r="14" cx="342" cy="467" stroke-width="2" stroke="hsl(271, 50%, 50%)" fill="none" opacity="0.73"></circle><circle r="10" cx="684" cy="27" stroke-width="2" stroke="hsl(126, 50%, 50%)" fill="none" opacity="0.49"></circle><circle r="8.5" cx="664" cy="297" fill="hsl(180, 50%, 50%)" opacity="0.19"></circle><circle r="14.5" cx="425" cy="289" fill="hsl(221, 50%, 50%)" opacity="0.39"></circle><circle r="8.5" cx="501" cy="322" stroke-width="2" stroke="hsl(186, 50%, 50%)" fill="none" opacity="0.46"></circle><circle r="10.5" cx="149" cy="733" fill="hsl(198, 50%, 50%)" opacity="0.35"></circle><circle r="15.5" cx="292" cy="619" fill="hsl(295, 50%, 50%)" opacity="0.11"></circle><circle r="8.5" cx="30" cy="46" fill="hsl(131, 50%, 50%)" opacity="0.85"></circle><circle r="13.5" cx="766" cy="387" stroke-width="2" stroke="hsl(176, 50%, 50%)" fill="none" opacity="0.49"></circle><circle r="13.5" cx="65" cy="626" fill="hsl(133, 50%, 50%)" opacity="0.35"></circle><circle r="11" cx="466" cy="313" fill="hsl(196, 50%, 50%)" opacity="0.65"></circle><circle r="9.5" cx="616" cy="744" fill="hsl(182, 50%, 50%)" opacity="0.97"></circle><circle r="9" cx="285" cy="239" fill="hsl(298, 50%, 50%)" opacity="0.26"></circle><circle r="10" cx="632" cy="405" stroke-width="2" stroke="hsl(181, 50%, 50%)" fill="none" opacity="0.40"></circle><circle r="11.5" cx="179" cy="454" stroke-width="2" stroke="hsl(242, 50%, 50%)" fill="none" opacity="0.55"></circle><circle r="11.5" cx="509" cy="777" stroke-width="2" stroke="hsl(186, 50%, 50%)" fill="none" opacity="0.20"></circle><circle r="11.5" cx="426" cy="79" stroke-width="2" stroke="hsl(275, 50%, 50%)" fill="none" opacity="0.84"></circle><circle r="18" cx="410" cy="410" fill="hsl(229, 50%, 50%)" opacity="0.40"></circle><circle r="9" cx="707" cy="463" fill="hsl(178, 50%, 50%)" opacity="0.73"></circle><circle r="10.5" cx="623" cy="264" stroke-width="2" stroke="hsl(182, 50%, 50%)" fill="none" opacity="0.81"></circle><circle r="8.5" cx="72" cy="693" stroke-width="2" stroke="hsl(133, 50%, 50%)" fill="none" opacity="0.37"></circle><circle r="16" cx="406" cy="549" stroke-width="2" stroke="hsl(229, 50%, 50%)" fill="none" opacity="0.43"></circle><circle r="11" cx="647" cy="647" stroke-width="2" stroke="hsl(181, 50%, 50%)" fill="none" opacity="0.68"></circle><circle r="7" cx="666" cy="556" fill="hsl(180, 50%, 50%)" opacity="0.79"></circle><circle r="10.5" cx="623" cy="350" stroke-width="2" stroke="hsl(182, 50%, 50%)" fill="none" opacity="0.13"></circle><circle r="9" cx="216" cy="723" stroke-width="2" stroke="hsl(278, 50%, 50%)" fill="none" opacity="0.49"></circle><circle r="8" cx="748" cy="744" stroke-width="2" stroke="hsl(176, 50%, 50%)" fill="none" opacity="0.38"></circle><circle r="13.5" cx="279" cy="21" fill="hsl(260, 50%, 50%)" opacity="0.84"></circle><circle r="12.5" cx="389" cy="175" fill="hsl(251, 50%, 50%)" opacity="0.40"></circle><circle r="8.5" cx="20" cy="496" stroke-width="2" stroke="hsl(129, 50%, 50%)" fill="none" opacity="0.84"></circle><circle r="10" cx="469" cy="622" stroke-width="2" stroke="hsl(196, 50%, 50%)" fill="none" opacity="0.65"></circle><circle r="10" cx="477" cy="507" stroke-width="2" stroke="hsl(192, 50%, 50%)" fill="none" opacity="0.74"></circle><circle r="8.5" cx="782" cy="586" fill="hsl(176, 50%, 50%)" opacity="0.70"></circle><circle r="13" cx="674" cy="234" fill="hsl(180, 50%, 50%)" opacity="0.22"></circle><circle r="14" cx="473" cy="227" fill="hsl(196, 50%, 50%)" opacity="0.23"></circle><circle r="10.5" cx="111" cy="491" stroke-width="2" stroke="hsl(158, 50%, 50%)" fill="none" opacity="0.47"></circle><circle r="13" cx="129" cy="604" stroke-width="2" stroke="hsl(183, 50%, 50%)" fill="none" opacity="0.22"></circle><circle r="8.5" cx="480" cy="545" stroke-width="2" stroke="hsl(192, 50%, 50%)" fill="none" opacity="0.49"></circle><circle r="13" cx="495" cy="99" fill="hsl(233, 50%, 50%)" opacity="0.86"></circle><circle r="14" cx="164" cy="401" stroke-width="2" stroke="hsl(228, 50%, 50%)" fill="none" opacity="0.20"></circle><circle r="5.5" cx="66" cy="471" fill="hsl(133, 50%, 50%)" opacity="0.27"></circle><circle r="11" cx="74" cy="558" fill="hsl(133, 50%, 50%)" opacity="0.69"></circle><circle r="7" cx="785" cy="690" fill="hsl(176, 50%, 50%)" opacity="0.79"></circle><circle r="7.5" cx="687" cy="752" stroke-width="2" stroke="hsl(179, 50%, 50%)" fill="none" opacity="0.90"></circle><circle r="11" cx="567" cy="223" stroke-width="2" stroke="hsl(181, 50%, 50%)" fill="none" opacity="0.77"></circle><circle r="10" cx="56" cy="773" fill="hsl(129, 50%, 50%)" opacity="1.00"></circle><circle r="6" cx="49" cy="106" stroke-width="2" stroke="hsl(88, 50%, 50%)" fill="none" opacity="0.10"></circle><circle r="13" cx="574" cy="296" stroke-width="2" stroke="hsl(181, 50%, 50%)" fill="none" opacity="0.54"></circle><circle r="11" cx="622" cy="702" fill="hsl(182, 50%, 50%)" opacity="0.25"></circle><circle r="10" cx="760" cy="29" fill="hsl(107, 50%, 50%)" opacity="0.56"></circle><circle r="10.5" cx="511" cy="725" fill="hsl(186, 50%, 50%)" opacity="0.42"></circle><circle r="17" cx="357" cy="415" fill="hsl(263, 50%, 50%)" opacity="0.58"></circle><circle r="9.5" cx="612" cy="89" stroke-width="2" stroke="hsl(159, 50%, 50%)" fill="none" opacity="0.48"></circle><circle r="14.5" cx="156" cy="285" fill="hsl(213, 50%, 50%)" opacity="0.32"></circle><circle r="16" cx="303" cy="420" fill="hsl(291, 50%, 50%)" opacity="0.67"></circle><circle r="7.5" cx="20" cy="750" stroke-width="2" stroke="hsl(129, 50%, 50%)" fill="none" opacity="0.28"></circle><circle r="9.5" cx="481" cy="701" fill="hsl(192, 50%, 50%)" opacity="0.57"></circle><circle r="12" cx="180" cy="583" stroke-width="2" stroke="hsl(242, 50%, 50%)" fill="none" opacity="0.63"></circle><circle r="11.5" cx="118" cy="774" fill="hsl(170, 50%, 50%)" opacity="0.89"></circle><circle r="12" cx="548" cy="424" fill="hsl(182, 50%, 50%)" opacity="0.62"></circle><circle r="16.5" cx="204" cy="311" stroke-width="2" stroke="hsl(267, 50%, 50%)" fill="none" opacity="0.37"></circle><circle r="8.5" cx="586" cy="27" fill="hsl(174, 50%, 50%)" opacity="0.23"></circle><circle r="10" cx="690" cy="184" stroke-width="2" stroke="hsl(167, 50%, 50%)" fill="none" opacity="0.70"></circle><circle r="11.5" cx="261" cy="713" stroke-width="2" stroke="hsl(296, 50%, 50%)" fill="none" opacity="0.72"></circle><circle r="19.5" cx="238" cy="599" fill="hsl(292, 50%, 50%)" opacity="0.25"></circle><circle r="12.5" cx="357" cy="264" stroke-width="2" stroke="hsl(263, 50%, 50%)" fill="none" opacity="1.00"></circle><circle r="15.5" cx="225" cy="99" stroke-width="2" stroke="hsl(200, 50%, 50%)" fill="none" opacity="0.88"></circle><circle r="6.5" cx="505" cy="625" fill="hsl(186, 50%, 50%)" opacity="0.36"></circle><circle r="7.5" cx="514" cy="356" fill="hsl(184, 50%, 50%)" opacity="0.11"></circle><circle r="7" cx="753" cy="704" fill="hsl(176, 50%, 50%)" opacity="0.81"></circle><circle r="15.5" cx="230" cy="256" stroke-width="2" stroke="hsl(286, 50%, 50%)" fill="none" opacity="0.65"></circle><circle r="13.5" cx="401" cy="704" fill="hsl(229, 50%, 50%)" opacity="0.66"></circle><circle r="11.5" cx="231" cy="689" fill="hsl(286, 50%, 50%)" opacity="0.30"></circle><circle r="7.5" cx="682" cy="359" fill="hsl(179, 50%, 50%)" opacity="0.55"></circle><circle r="7.5" cx="721" cy="695" fill="hsl(177, 50%, 50%)" opacity="0.79"></circle><circle r="9" cx="622" cy="309" fill="hsl(182, 50%, 50%)" opacity="0.17"></circle><circle r="11" cx="702" cy="556" stroke-width="2" stroke="hsl(178, 50%, 50%)" fill="none" opacity="0.50"></circle><circle r="16" cx="330" cy="354" stroke-width="2" stroke="hsl(279, 50%, 50%)" fill="none" opacity="0.96"></circle><circle r="10" cx="488" cy="60" fill="hsl(242, 50%, 50%)" opacity="0.83"></circle><circle r="9.5" cx="631" cy="36" fill="hsl(146, 50%, 50%)" opacity="0.69"></circle><circle r="13" cx="334" cy="692" fill="hsl(279, 50%, 50%)" opacity="0.64"></circle><circle r="10.5" cx="585" cy="582" stroke-width="2" stroke="hsl(182, 50%, 50%)" fill="none" opacity="0.61"></circle><circle r="10.5" cx="740" cy="176" fill="hsl(164, 50%, 50%)" opacity="0.19"></circle><circle r="8.5" cx="724" cy="775" fill="hsl(177, 50%, 50%)" opacity="0.20"></circle><circle r="11" cx="586" cy="676" fill="hsl(182, 50%, 50%)" opacity="0.95"></circle><circle r="8" cx="626" cy="783" fill="hsl(181, 50%, 50%)" opacity="0.32"></circle><circle r="6" cx="135" cy="18" fill="hsl(102, 50%, 50%)" opacity="0.37"></circle><circle r="10.5" cx="25" cy="681" stroke-width="2" stroke="hsl(129, 50%, 50%)" fill="none" opacity="0.79"></circle><circle r="8.5" cx="682" cy="326" fill="hsl(179, 50%, 50%)" opacity="0.48"></circle><circle r="12.5" cx="252" cy="406" stroke-width="2" stroke="hsl(296, 50%, 50%)" fill="none" opacity="0.50"></circle><circle r="10.5" cx="591" cy="488" fill="hsl(182, 50%, 50%)" opacity="0.80"></circle><circle r="5.5" cx="788" cy="470" fill="hsl(177, 50%, 50%)" opacity="0.99"></circle></svg>